# xmcd CD database file generated by Grip 2.95
# 
# Track frame offsets:
#       150
#       14407
#       25119
#       32207
#       44887
#       53030
#       72011
#       80400
#       98073
#       100588
#       116555
#       132977
#       139518
#       147700
#       163786
#       168376
#       182805
#       200595
#       207485
#       219561
#       224794
#       234434
#       240417
#       251996
#       264590
#       287905
#       298157
#       305884
#       318874
#       331829
# 
# Disc length: 4627 seconds
# 
# Revision: 3
# Processed by: cddbd v1.5PL3 Copyright (c) Steve Scherf et al.
# Submitted via: Grip 2.95
# 
DISCID=d912111e
DTITLE=Wayne Hancock - Memphis 2003-06-13 Disc 2
DYEAR=1900
DGENRE=
TTITLE0=Life On The Road
TTITLE1=Route 66
TTITLE2="Swing Time announcement"
TTITLE3=Kansas City Blues
TTITLE4="band intro"
TTITLE5=Kansas City (Here I Come)
TTITLE6="tuning/talk"
TTITLE7=Wine Spodeeodee
TTITLE8="tuning/talk" (2)
TTITLE9=Blue Suede Shoes
TTITLE10=Hightway 54
TTITLE11="tuning/talk" (2) (2)
TTITLE12=A-Town Blues
TTITLE13=Cow Cow Boogie
TTITLE14="tuning/talk" (2) (2) (2)
TTITLE15=Hoy Hoy Hoy
TTITLE16=Honky Tonk Blues
TTITLE17="hope you enjoyed the show"
TTITLE18=That's What Daddy Wants
TTITLE19="be sure to go by the Broken Spoke"
TTITLE20=Honky Tonk Man
TTITLE21="that about does it"
TTITLE22=Big City Good Time Gal
TTITLE23="Wayne: Sing Into the Mic"
TTITLE24=Thunderstorms and Neon Signs
TTITLE25=Comin' In On a Wing and A Prayer
TTITLE26="I'm about done folks"
TTITLE27=Friday And Saturday Night
TTITLE28="Swing Time plug"
TTITLE29=Johnny Law
EXTD=
EXTT0=
EXTT1=
EXTT2=
EXTT3=
EXTT4=
EXTT5=
EXTT6=
EXTT7=
EXTT8=
EXTT9=
EXTT10=
EXTT11=
EXTT12=
EXTT13=
EXTT14=
EXTT15=
EXTT16=
EXTT17=
EXTT18=
EXTT19=
EXTT20=
EXTT21=
EXTT22=
EXTT23=
EXTT24=
EXTT25=
EXTT26=
EXTT27=
EXTT28=
EXTT29=
PLAYORDER=
